<svg id="Capa_1" enable-background="new 0 0 512 512" height="512" viewBox="0 0 512 512" width="512" xmlns="http://www.w3.org/2000/svg" xmlns:xlink="http://www.w3.org/1999/xlink"><linearGradient id="SVGID_1_" gradientUnits="userSpaceOnUse" x1="470.914" x2="8.898" y1="500.851" y2="-24.629"><stop offset=".0033" stop-color="#ffb3b3"/><stop offset=".992" stop-color="#ffe8dc" stop-opacity="0"/></linearGradient><g><path d="m9.249 369.488c-14.401-22.336-18.644-150.104 37.9-162.351 153.814-33.313 159.29-165.622 217.04-158.09s40.174 105.456 77.836 87.88 35.152-128.989 77.837-88.347-2.511 65.75 37.663 108.434 111.274 157.165-26.503 279.045c-142.853 126.37-135.988-85.028-249.648-52.403-75.012 21.532-143.837 29.708-172.125-14.168z" fill="url(#SVGID_1_)"/><g><g><path d="m461.683 395.899h-11.058c.175-.51.291-1.047.291-1.617v-15.652c0-2.761-2.239-5-5-5h-205.195l34.706-115.946 28.912 8.654-1.072 3.58c-.727 2.429.337 5.136 2.647 6.183.683.31 1.393.455 2.085.455 2.151 0 4.14-1.4 4.788-3.567l1.133-3.783 53.446 15.998-1.067 3.566c-.792 2.646.567 5.57 3.198 6.411.509.163 1.024.241 1.53.241 2.152 0 4.14-1.4 4.788-3.568l1.132-3.782 43.252 12.947-1.067 3.566c-.792 2.646.567 5.57 3.198 6.411.509.163 1.024.241 1.53.241 2.152 0 4.14-1.4 4.788-3.568l2.565-8.573c13.173-44.008 8.42-90.512-13.384-130.945-21.804-40.434-58.048-69.956-102.057-83.128-90.846-27.194-186.88 24.592-214.073 115.44l-2.501 8.356c-.792 2.646.567 5.57 3.198 6.411.509.163 1.024.241 1.53.241 2.152 0 4.14-1.4 4.788-3.568l1.132-3.782 43.252 12.947-1.067 3.566c-.792 2.646.567 5.57 3.198 6.411.509.163 1.024.241 1.53.241 2.152 0 4.14-1.4 4.788-3.568l1.132-3.782 53.446 15.998-1.072 3.58c-.727 2.429.337 5.136 2.647 6.183.683.31 1.393.455 2.085.455 2.151 0 4.14-1.4 4.788-3.567l1.133-3.783 28.912 8.654-36.575 122.174h-27.643l-87.305-87.305c-1.953-1.953-5.118-1.953-7.071 0l-12.44 12.44c-.15.149-.266.318-.392.48l-3.185-3.185c-1.953-1.953-5.118-1.953-7.071 0l-12.44 12.44c-1.953 1.953-1.953 5.118 0 7.071l24.579 24.579c-.905.905-1.464 2.155-1.464 3.535v52.213h-33.294c-2.761 0-5 2.239-5 5v28.538c0 2.761 2.239 5 5 5h25.188v15.668 29.069c0 2.761 2.239 5 5 5h29.7c2.761 0 5-2.239 5-5v-44.737h84.637l-8.371 27.966c-15.898 2.804-29.86 8.653-40.196 14.242-3.662 1.98-2.277 7.529 1.886 7.529h114.464c4.147 0 5.566-5.54 1.918-7.514-13.418-7.26-32.955-14.963-54.915-15.862l7.891-26.361h174.276v44.737c0 2.761 2.239 5 5 5h29.7c2.761 0 5-2.239 5-5v-44.737h25.188c2.761 0 5-2.239 5-5v-28.538c0-2.761-2.239-4.999-5-4.999zm-368.073 0v-47.213l47.213 47.213z" fill="#00c" opacity=".1"/><g><g><g><g><path d="m210.498 450.599 85.686-286.259-20.813-6.23-87.551 292.489z" fill="#4d4dff"/><path d="m230.907 191.213h85.284v21.725h-85.284z" fill="#2c27ff" transform="matrix(.287 -.958 .958 .287 1.517 406.19)"/></g><g><path d="m426.421 273.661c26.445-88.347-23.737-181.405-112.084-207.85s-181.405 23.737-207.85 112.084z" fill="#ff6c6c"/><path d="m373.589 257.847c26.445-88.347-.083-174.324-59.252-192.035s-128.572 39.551-155.017 127.898z" fill="#ffd9d9"/><path d="m310.563 238.982c26.445-88.347 28.135-165.878 3.774-173.17s-65.547 58.416-91.992 146.764z" fill="#ff6c6c"/></g></g><g><path d="m445.915 349.63h-255.515l-87.305-87.305c-1.953-1.953-5.118-1.953-7.071 0l-12.44 12.44c-1.953 1.953-1.953 5.118 0 7.071l93.446 93.446h268.885c2.761 0 5-2.239 5-5v-15.652c0-2.762-2.239-5-5-5z" fill="#8383ff"/><g fill="#d9d9ff"><path d="m218.138 349.63h37.638v25.653h-37.638z"/><path d="m292.985 349.63h37.638v25.653h-37.638z"/><path d="m367.831 349.63h37.638v25.653h-37.638z"/></g><path d="m182.787 374.84-19.511 19.511-102.78-102.78c-1.953-1.953-1.953-5.118 0-7.071l12.44-12.44c1.953-1.953 5.118-1.953 7.071 0z" fill="#ff8b00"/><g><g><g><path d="m110.205 460.174h-29.7c-2.761 0-5-2.239-5-5v-48.32h39.7v48.32c0 2.761-2.238 5-5 5z" fill="#ff9d33"/><path d="m75.505 406.854h39.7v19.251h-39.7z" fill="#ff8b00"/></g><g><path d="m431.495 460.174h-29.7c-2.761 0-5-2.239-5-5v-48.32h39.7v48.32c0 2.761-2.239 5-5 5z" fill="#ff9d33"/><path d="m396.795 406.854h39.7v19.251h-39.7z" fill="#ff8b00"/></g></g><path d="m461.682 410.437h-411.365c-2.761 0-5-2.239-5-5v-28.538c0-2.761 2.239-5 5-5h411.365c2.761 0 5 2.239 5 5v28.538c0 2.761-2.238 5-5 5z" fill="#ffab66"/><g><path d="m95.355 396.225c-2.762 0-5-2.239-5-5v-.115c0-2.761 2.238-5 5-5s5 2.239 5 5v.115c0 2.762-2.238 5-5 5z" fill="#6c6cff"/></g><g><path d="m416.645 396.225c-2.762 0-5-2.239-5-5v-.115c0-2.761 2.238-5 5-5s5 2.239 5 5v.115c0 2.762-2.239 5-5 5z" fill="#6c6cff"/></g></g></g></g><g><path d="m281.742 460.174c-12.019-8.518-39.433-23.473-71.347-23.473-31.915 0-59.329 14.955-71.347 23.473z" fill="#ffd6bb"/><path d="m461.683 366.899h-5.768v-12.27c0-5.514-4.486-10-10-10h-198.468l32.772-109.511 24.12 7.22-1.132 3.782c-.792 2.646.711 5.432 3.356 6.224.478.143.961.211 1.436.211 2.151 0 4.14-1.4 4.788-3.567l1.132-3.783 53.446 15.998-1.132 3.783c-.792 2.646.711 5.432 3.356 6.224.479.143.961.211 1.436.211 2.152 0 4.14-1.4 4.788-3.568l1.132-3.782 43.252 12.947-1.132 3.782c-.792 2.646.711 5.432 3.356 6.224.479.143.961.211 1.436.211 2.152 0 4.14-1.4 4.788-3.568l2.565-8.57c0-.001 0-.001 0-.002 3.536-11.813 5.808-24.021 6.751-36.286.212-2.753-1.849-5.157-4.602-5.369-2.763-.205-5.157 1.848-5.369 4.602-.762 9.896-2.44 19.753-5 29.372l-199.211-59.629h-.001s-.001 0-.001 0l-63.023-18.864c-.001 0-.002-.001-.003-.001s-.002 0-.003-.001l-47.967-14.358c13.064-39.296 40.179-71.611 76.789-91.354 38.083-20.536 81.883-25.012 123.331-12.605 30.19 9.037 56.857 26.473 77.117 50.423 19.745 23.342 32.475 51.636 36.812 81.823.393 2.733 2.919 4.636 5.66 4.238 2.733-.393 4.631-2.927 4.238-5.66-4.604-32.048-18.116-62.083-39.075-86.86-21.516-25.435-49.831-43.95-81.885-53.544-44.006-13.172-90.511-8.42-130.944 13.384-40.434 21.804-69.956 58.048-83.129 102.057l-2.565 8.572c-.792 2.646.711 5.432 3.356 6.224.479.143.961.211 1.436.211 2.152 0 4.14-1.4 4.788-3.568l1.132-3.782 43.252 12.947-1.132 3.783c-.792 2.646.711 5.432 3.356 6.224.479.143.961.211 1.436.211 2.152 0 4.14-1.4 4.788-3.568l1.132-3.782 53.446 15.998-1.132 3.782c-.792 2.646.711 5.432 3.356 6.224.478.143.961.211 1.436.211 2.151 0 4.14-1.4 4.788-3.567l1.132-3.782 24.123 7.221-35.501 118.609h-21.853l-85.841-85.841c-3.898-3.897-10.243-3.897-14.142 0l-9.361 9.361c-3.92-3.507-9.96-3.391-13.728.375l-12.438 12.439c-1.89 1.889-2.93 4.4-2.93 7.071s1.04 5.183 2.93 7.071l26.649 26.65v45.142h-33.291c-5.514 0-10 4.486-10 10v28.538c0 5.514 4.486 10 10 10l20.188.001v39.736c0 5.514 4.486 10 10 10h29.7c5.514 0 10-4.486 10-10v-39.735l72.919.002-5.56 18.578c-25.804 5.18-45.086 17.595-51.408 22.076-2.253 1.597-2.784 4.717-1.188 6.97 1.597 2.254 4.718 2.784 6.971 1.188 5.313-3.766 33.586-22.552 68.455-22.552 34.87 0 63.143 18.786 68.456 22.552.878.622 1.888.921 2.888.921 1.566 0 3.108-.734 4.083-2.109 1.597-2.253 1.065-5.374-1.188-6.97-7.268-5.151-31.669-20.786-63.417-23.859l6.093-20.36c.453-1.514.164-3.152-.779-4.419s-2.431-2.014-4.011-2.014l-172.202-.005v-28.538h411.365v28.538h-202.872c-2.762 0-5 2.239-5 5s2.238 5 5 5h132.985v39.737c0 5.514 4.486 10 10 10h29.7c5.514 0 10-4.486 10-10v-39.737h20.188c5.514 0 10-4.486 10-10v-28.538c0-5.515-4.487-10.001-10-10.001zm-351.478 88.275h-29.7v-39.736l29.7.001zm100.731-23.464c-.181-.001-.359-.008-.541-.008-4.066 0-8.031.237-11.892.647l5.06-16.907h12.241zm48.469-202.822 11.234 3.363-33.63 112.379h-12.246zm-159.845 36.972 87.305 87.305c.938.938 2.209 1.464 3.535 1.464h255.516v12.27h-263.999l-91.698-91.698zm-23.088 9.736 91.303 91.303h-24.881l-78.862-78.863zm17.138 56.161 35.142 35.142h-35.142zm337.885 123.417h-29.7v-39.737h29.7z" fill="#00c"/></g></g></g><path d="m316.177 303.447h-13.793c-2.762 0-5 2.239-5 5s2.238 5 5 5h1.723l-5.258 5.258c-1.953 1.953-1.953 5.119 0 7.071.976.976 2.256 1.464 3.535 1.464s2.56-.488 3.535-1.464l5.258-5.258v1.722c0 2.761 2.238 5 5 5s5-2.239 5-5v-13.793c0-2.761-2.239-5-5-5z" fill="#ff4d4d"/><g fill="#4d4dff"><path d="m89.016 140.224h-13.793c-2.762 0-5 2.239-5 5s2.238 5 5 5h1.723l-5.258 5.258c-1.953 1.953-1.953 5.119 0 7.071.976.976 2.256 1.464 3.535 1.464s2.56-.488 3.535-1.464l5.258-5.258v1.722c0 2.761 2.238 5 5 5s5-2.239 5-5v-13.793c0-2.762-2.239-5-5-5z"/><path d="m363.419 306.251h-1.723l5.258-5.258c1.953-1.953 1.953-5.119 0-7.071-1.951-1.952-5.119-1.952-7.07 0l-5.258 5.258v-1.722c0-2.761-2.238-5-5-5s-5 2.239-5 5v13.793c0 2.761 2.238 5 5 5h13.793c2.762 0 5-2.239 5-5s-2.238-5-5-5z"/></g><g fill="#ff8b00"><path d="m363.419 41.62h-1.723l5.258-5.258c1.953-1.953 1.953-5.119 0-7.071-1.951-1.952-5.119-1.952-7.07 0l-5.258 5.258v-1.722c0-2.761-2.238-5-5-5s-5 2.239-5 5v13.793c0 2.761 2.238 5 5 5h13.793c2.762 0 5-2.239 5-5s-2.238-5-5-5z"/><path d="m182.252 247.799c-1.951-1.952-5.119-1.952-7.07 0l-5.259 5.259v-1.723c0-2.761-2.238-5-5-5s-5 2.239-5 5v13.794c0 2.761 2.238 5 5 5h13.794c2.762 0 5-2.239 5-5s-2.238-5-5-5h-1.723l5.258-5.258c1.953-1.953 1.953-5.119 0-7.072z"/></g></g></g></svg>